<svg xmlns="http://www.w3.org/2000/svg" width="100" height="82" viewBox="0 0 100 82">
    <g fill="none" fill-rule="evenodd" transform="translate(0 2)">
        <path fill="#FFF" d="M0 16h90v45H0z" opacity=".7"/>
        <circle cx="59" cy="39" r="39" fill="#FFF" stroke="#FFE5DC" stroke-width="4"/>
        <g fill="#FF8E66" fill-rule="nonzero">
            <path d="M76.156 39.448c.021-.07.03-.14.044-.212.013-.065.03-.13.036-.196.007-.07.002-.142.002-.21s.005-.135-.002-.201c-.007-.07-.026-.14-.037-.21-.014-.066-.023-.134-.042-.2-.018-.06-.045-.116-.068-.174-.03-.075-.058-.15-.095-.22-.007-.012-.008-.025-.015-.035-.025-.043-.056-.079-.084-.119-.044-.069-.087-.136-.138-.199-.045-.054-.095-.102-.146-.152-.05-.048-.095-.097-.15-.143-.064-.051-.132-.094-.2-.14-.04-.026-.076-.057-.117-.082-.609-.338-1.386-1.01-2.286-1.79C70.018 32.712 65.727 29 58.62 29c-7.107 0-11.399 3.71-14.237 6.166-.9.779-1.678 1.451-2.287 1.79-.041.022-.076.054-.114.08-.069.044-.14.088-.203.141-.053.043-.1.093-.15.142-.05.05-.101.099-.147.153-.051.063-.093.13-.137.198-.027.04-.06.077-.085.12-.007.011-.008.024-.015.034-.038.072-.066.148-.095.22-.023.06-.05.115-.069.175-.02.066-.028.134-.041.2-.013.07-.03.14-.037.21-.008.066-.002.132-.002.197 0 .072-.006.145.002.214.007.066.024.13.035.194.015.073.025.145.045.215.017.054.043.107.064.162.03.08.06.157.1.232.006.011.009.023.015.033.013.023.03.037.044.058.075.124.16.238.26.345.032.036.065.072.1.105.104.099.22.189.347.27.023.013.042.03.065.043.005.003.011.009.017.012.61.338 1.387 1.01 2.288 1.788 2.838 2.454 7.129 6.163 14.234 6.163s11.395-3.71 14.234-6.163c.9-.779 1.678-1.45 2.288-1.788.005-.003.011-.009.017-.012.023-.012.041-.03.064-.044a2.086 2.086 0 0 0 .448-.374c.1-.107.185-.221.26-.345.012-.021.03-.035.044-.058.006-.012.008-.023.014-.033.04-.075.07-.152.1-.232.026-.055.052-.108.069-.163zm-17.534 4.917c-5.506 0-8.79-2.837-11.425-5.116l-.487-.418c.159-.138.318-.27.484-.416 2.638-2.28 5.922-5.119 11.428-5.119 5.506 0 8.791 2.839 11.428 5.12.166.144.325.277.484.415-.16.139-.319.273-.487.418-2.635 2.279-5.92 5.116-11.425 5.116z"/>
            <path d="M58.622 33.638a5.198 5.198 0 0 0-5.192 5.193 5.198 5.198 0 0 0 5.192 5.192c2.862 0 5.19-2.33 5.19-5.192a5.198 5.198 0 0 0-5.19-5.193zm0 6.09a.898.898 0 1 1 .001-1.796.898.898 0 0 1-.001 1.796z"/>
        </g>
    </g>
</svg>
