<svg xmlns="http://www.w3.org/2000/svg" width="101" height="82" viewBox="0 0 101 82">
    <g fill="none" fill-rule="evenodd" transform="translate(0 2)">
        <path fill="#FFF" d="M0 16h90v45H0z" opacity=".7"/>
        <circle cx="60" cy="39" r="39" fill="#FFF" stroke="#E3F8F1" stroke-width="4"/>
        <g fill="#61B5A1" fill-rule="nonzero">
            <path d="M60.502 22c-1.421 0-2.826.239-4.18.712-3.592 1.26-6.38 4.018-7.692 7.712a16.736 16.736 0 0 0-.249 8.101c1.45 6.72 5.259 12.757 10.724 16.999.409.318.904.476 1.397.476s.987-.158 1.397-.476c5.465-4.24 9.274-10.279 10.725-16.996.58-2.672.493-5.473-.296-8.243C70.563 25.33 65.81 22 60.502 22zM68.2 37.59a24.93 24.93 0 0 1-7.697 13.241 24.941 24.941 0 0 1-7.696-13.246c-.427-1.962-.364-4.02.139-5.811a7.942 7.942 0 0 1 4.885-4.84 8.088 8.088 0 0 1 2.67-.455c3.393 0 6.432 2.13 7.515 5.154.548 1.93.611 3.988.184 5.956z"/>
            <path d="M60.5 28a6.506 6.506 0 0 0-6.5 6.498A6.507 6.507 0 0 0 60.5 41c3.585 0 6.5-2.916 6.5-6.502A6.506 6.506 0 0 0 60.5 28zm0 8.5c-1.103 0-2-.899-2-2.002 0-1.1.897-1.998 2-1.998s2 .897 2 1.998a2.003 2.003 0 0 1-2 2.002z"/>
        </g>
    </g>
</svg>
