<svg xmlns="http://www.w3.org/2000/svg" width="100" height="82" viewBox="0 0 100 82">
    <g fill="none" fill-rule="evenodd" transform="translate(0 2)">
        <path fill="#FFF" d="M0 16h90v45H0z" opacity=".7"/>
        <circle cx="59" cy="39" r="39" fill="#FFF" stroke="#F8EBCB" stroke-width="4"/>
        <path fill="#CD9C03" fill-rule="nonzero" d="M66.14 38.965a9.384 9.384 0 0 0-2.32-1.247 46.6 46.6 0 0 0-2.599-.881l.638-7.528c.47.109.906.248 1.299.418.393.17.748.338 1.061.501.316.164.601.304.857.418.252.115.47.172.652.172.242 0 .447-.06.618-.18.17-.121.332-.305.493-.545l1.09-1.657a11.943 11.943 0 0 0-2.419-1.772c-.934-.526-2.044-.893-3.327-1.1L62.475 22H60.82c-.352 0-.637.115-.853.346-.222.23-.34.491-.366.781L59.4 25.42c-1.332.06-2.515.314-3.545.763-1.03.45-1.9 1.02-2.608 1.709a6.974 6.974 0 0 0-1.609 2.355 6.975 6.975 0 0 0-.547 2.7c0 1.237.208 2.267.62 3.091.41.826.954 1.507 1.626 2.046.675.54 1.43.974 2.275 1.3.842.327 1.693.612 2.554.855l-.671 8.127c-.679-.122-1.267-.308-1.763-.564-.5-.254-.94-.508-1.329-.755-.39-.248-.735-.467-1.037-.654-.304-.188-.588-.282-.853-.282a1.28 1.28 0 0 0-.647.172 1.402 1.402 0 0 0-.483.444L50 48.781c.873.86 1.936 1.582 3.183 2.164a13.83 13.83 0 0 0 3.999 1.163L56.856 56h1.654c.34 0 .621-.118.846-.355.224-.238.342-.495.355-.774l.218-2.673c1.36-.085 2.565-.367 3.619-.845 1.056-.48 1.946-1.098 2.675-1.856a7.745 7.745 0 0 0 1.654-2.618c.375-.99.564-2.046.564-3.175 0-1.139-.215-2.087-.637-2.844a6.05 6.05 0 0 0-1.665-1.895zm-7.61-3c-.46-.182-.886-.378-1.273-.591a4.669 4.669 0 0 1-1.007-.726 3.063 3.063 0 0 1-.675-.927c-.163-.346-.243-.749-.243-1.209 0-.4.067-.781.208-1.145a2.71 2.71 0 0 1 .662-.983c.305-.29.691-.536 1.165-.735.473-.2 1.05-.343 1.728-.428l-.565 6.744zm4.646 11.174c-.662.698-1.635 1.129-2.918 1.3l.618-7.4c.473.17.909.352 1.309.545.4.193.748.424 1.046.691.295.266.528.574.692.92.164.344.242.747.242 1.207 0 1.127-.33 2.04-.99 2.737z"/>
    </g>
</svg>
